PathFileType	4	(X/Y/Z)	/Users/visionmauri/4_2_2_f_1_Sports2D/4_2_2_f_1_Sports2D_px_person00.trc
DataRate	CameraRate	NumFrames	NumMarkers	Units	OrigDataRate	OrigDataStartFrame	OrigNumFrames
30.0	30.0	13	22	m	30.0	162	325
Frame#	Time	Hip			RHip			RKnee			RAnkle			RBigToe			RSmallToe			RHeel			LHip			LKnee			LAnkle			LBigToe			LSmallToe			LHeel			Neck			Head			Nose			RShoulder			RElbow			RWrist			LShoulder			LElbow			LWrist			
		X1	Y1	Z1	X2	Y2	Z2	X3	Y3	Z3	X4	Y4	Z4	X5	Y5	Z5	X6	Y6	Z6	X7	Y7	Z7	X8	Y8	Z8	X9	Y9	Z9	X10	Y10	Z10	X11	Y11	Z11	X12	Y12	Z12	X13	Y13	Z13	X14	Y14	Z14	X15	Y15	Z15	X16	Y16	Z16	X17	Y17	Z17	X18	Y18	Z18	X19	Y19	Z19	X20	Y20	Z20	X21	Y21	Z21	X22	Y22	Z22
162	5.416666666666667	569.4035917526234	850.0507915981439	0.0	519.7580812160826	844.6181257013799	0.0	519.4837630780047	1002.0599344156013	0.0	489.3767611949689	1215.0772402092641	0.0	522.9068622073589	1271.8628139451182	0.0	494.96095331458247	1269.6799919684993	0.0	479.672823565423	1247.5991354910723	0.0	618.8820284786887	853.25180769484	0.0	617.1049887748213	1027.9419231610548	0.0	592.8933698701667	1209.02807297771	0.0	664.137581135711	1246.8543611098742	0.0	661.7199343631988	1236.7668655486011	0.0	580.7778300855814	1242.2704188487087	0.0	590.4343309537359	597.4419558824267	0.0	610.2819470942388	471.94402781637876	0.0	601.7110906105673	563.9437918136601	0.0	503.57629052344015	619.5068772470421	0.0	432.5908820061682	734.134936930689	0.0	393.94240491470237	831.7057629980112	0.0	675.3847253751629	609.3454508844669	0.0	707.5586298023072	733.7318800105835	0.0	736.3486962249099	826.5913929259096	0.0
163	5.450102880658436	567.9198682830697	850.6506580476242	0.0	517.8836012246412	845.8583168976927	0.0	518.9990774393186	1002.9119948790343	0.0	486.8400085403591	1213.707142548375	0.0	524.4293818642216	1272.15967427964	0.0	496.5761003430147	1270.8367269204564	0.0	479.8710652214424	1246.7946799805609	0.0	617.3758711918776	853.5341083198634	0.0	619.4245775579723	1028.046107764151	0.0	594.149013640562	1208.8135301003679	0.0	665.8385510663592	1247.4535629718102	0.0	662.8166784364413	1236.2527733866305	0.0	581.7181403570524	1241.6851024497703	0.0	586.0921898389555	596.1118941430855	0.0	603.9845638800052	472.3314657841029	0.0	596.4269050687316	562.6493606283656	0.0	498.909493750557	620.9786138462403	0.0	429.21828264290383	735.5121887915634	0.0	392.3510025108883	831.6480341084911	0.0	671.871748320967	608.5855600777361	0.0	706.9301023451579	733.222678667529	0.0	736.5915845239862	827.289453870971	0.0
164	5.483539094650206	566.5222603271889	851.9909689786466	0.0	515.9783524699513	848.352976708902	0.0	517.4372092598071	1004.8158513693636	0.0	483.80837344718395	1213.4611758115916	0.0	524.2501172318988	1273.068928041307	0.0	497.3563560331348	1273.2519858397118	0.0	478.1411747503469	1247.339359137003	0.0	616.1909016873985	854.4411165544433	0.0	622.4393622789162	1028.3655976718774	0.0	596.0441321626629	1208.269905202956	0.0	667.4152303774246	1247.9222161144573	0.0	664.9701672866507	1235.9842759004703	0.0	582.8173842429203	1239.7124440937703	0.0	581.8113861356003	595.3425464171064	0.0	596.3510223991559	472.8058385669924	0.0	589.8461948572752	561.3932883927839	0.0	494.9054673057337	623.0898168530798	0.0	426.13906570241244	735.7896196704879	0.0	391.0123538336438	830.805390410502	0.0	668.7160913368853	607.9288754728805	0.0	705.804871080438	732.860322855893	0.0	736.1410382062822	827.6399012430784	0.0
165	5.5169753086419755	565.281404686053	853.0820022529922	0.0	514.4309847631803	850.9001409546298	0.0	515.2521244026959	1008.1463102287023	0.0	481.0356372696078	1215.1470964919163	0.0	524.7814948311305	1275.2083218196544	0.0	500.49106469831406	1276.385970519158	0.0	474.91779943433846	1248.436606740446	0.0	615.5484738170537	854.7733138642925	0.0	626.6846454538735	1028.4647060403506	0.0	598.1757111202046	1206.9320838945032	0.0	668.2447347964187	1248.1209131639366	0.0	667.6088080316182	1235.9618745762903	0.0	584.3386842725139	1236.7072300486225	0.0	578.0464043150401	595.3874485641593	0.0	588.6292033805328	473.04315742943584	0.0	582.8714214126352	560.1483459390525	0.0	491.2874975614813	624.6727527378183	0.0	423.4328058989062	735.4814354490334	0.0	388.6557518566065	831.2897239149177	0.0	665.5081522650967	606.9960291012577	0.0	703.8949640807946	732.8591770830104	0.0	735.6324684058026	827.5865224788736	0.0
166	5.550411522633745	563.7022995065264	852.8697837227593	0.0	512.2506319696921	851.7022556142687	0.0	513.1643337498076	1009.3712289171534	0.0	479.8224338802529	1217.1473354151462	0.0	524.3965728773381	1277.3325310621656	0.0	503.90204357207824	1277.875755617783	0.0	474.29532958624696	1249.075707788706	0.0	614.5662575063345	853.5772405256666	0.0	632.493345961715	1027.9538460511892	0.0	600.6264907881925	1204.2631131319904	0.0	668.1545046055132	1248.152052428691	0.0	670.4485878018202	1236.508026494138	0.0	586.8112844239806	1232.9233963320366	0.0	575.0023001681668	596.0689672989238	0.0	582.1592188209496	471.9335223045473	0.0	577.7940568282598	558.7339107877913	0.0	487.3098352197096	625.2529444077488	0.0	421.69890530354957	735.4153576706329	0.0	385.44550127917773	833.4460229974287	0.0	662.4481556457979	606.3045521137527	0.0	702.0441088103805	732.9637506286854	0.0	735.8616186778062	828.0688283514557	0.0
167	5.583847736625515	562.3019164264283	851.8326081391433	0.0	509.43333973999773	851.1484404851667	0.0	512.0728514184983	1007.8901529348623	0.0	481.3078310946017	1216.8255134235992	0.0	519.642693415521	1277.8150234027773	0.0	504.3308771301268	1276.785504355928	0.0	478.50037719627176	1248.2911755263344	0.0	613.6957664671883	851.856002907965	0.0	640.0773753317918	1027.04697428321	0.0	603.5547285604122	1199.982929646994	0.0	667.6644373374568	1247.8147696027704	0.0	673.1152625079495	1237.2321040874067	0.0	589.7022013800541	1227.780676621409	0.0	572.2833714489469	596.6417745297069	0.0	577.1795080069079	468.92335840308334	0.0	575.6590857727459	557.4863438913943	0.0	483.0064915532624	624.9726486472443	0.0	420.8540022843998	736.2385428047792	0.0	382.850291820418	835.4735583376148	0.0	660.2491888618167	605.7939645549933	0.0	701.2140889695345	732.1728396607853	0.0	736.4197185541303	828.8271505949226	0.0
168	5.617283950617284	561.9759103613106	850.8957971053931	0.0	507.55792547183427	850.6711058854454	0.0	512.2362357517864	1006.6662207528533	0.0	484.4431354053946	1213.5267892369693	0.0	512.1886546676953	1276.438598273759	0.0	502.82852714035306	1273.4497219824832	0.0	484.06673312610644	1245.5645299615799	0.0	614.4807609572335	850.7246263311881	0.0	649.1154739603705	1026.1406206541365	0.0	606.6037894116652	1194.7013496773357	0.0	667.8633646645306	1247.0162142867575	0.0	675.0179044017946	1236.5245909227892	0.0	591.6179045919546	1221.1684512136908	0.0	569.2355418511348	595.4454492195154	0.0	572.8801358979077	465.4435117155809	0.0	573.8802780525203	556.0711454720703	0.0	479.31105326201447	623.7234246517287	0.0	420.29143955174595	737.4403941673887	0.0	381.4727595308187	836.4213382147972	0.0	658.6661234713761	604.6163092931621	0.0	701.0328405618991	729.8556097244331	0.0	736.5855261130602	828.6958111722123	0.0
169	5.650720164609053	562.4266449497317	849.8266019004678	0.0	507.49276369642905	850.5657163528067	0.0	512.6715863229831	1007.9568332249672	0.0	486.61837232406884	1210.557174302622	0.0	508.4667214217192	1274.9409108578063	0.0	502.33634268046575	1269.3532105618606	0.0	485.68790950484595	1242.518212169178	0.0	616.7211687976146	849.7278325935876	0.0	658.2168607604399	1025.41637270349	0.0	609.32772651669	1189.9747996808258	0.0	669.3674885816757	1246.793536151309	0.0	676.5633181022423	1234.6075535375671	0.0	592.3062887871158	1214.6634801432895	0.0	566.0343675804189	591.9509905986157	0.0	568.6398282907546	462.9481131374106	0.0	569.3261662631155	553.8189130037349	0.0	476.5908087138885	621.7755604502961	0.0	419.4428626753065	738.1581932650396	0.0	380.461865657305	836.8636508988521	0.0	657.1238151253335	602.9730423779927	0.0	700.5567422085975	727.3803293203263	0.0	736.3624341329509	827.7782093226506	0.0
170	5.684156378600823	562.8818904267947	848.3301809220924	0.0	508.24100512037546	850.5618245922432	0.0	512.5341941847688	1011.1842536034047	0.0	486.8965167373152	1212.5451026291817	0.0	511.7256960375954	1275.8859929937064	0.0	503.32646012213826	1268.1079805695508	0.0	483.17193766530875	1243.3825600469104	0.0	618.7063109895687	848.4796551533299	0.0	665.7974771128269	1024.9239546618371	0.0	611.9141448592976	1187.1886075355421	0.0	671.4860790451437	1248.7093113952455	0.0	678.7029546425321	1234.662675261372	0.0	593.1572076007144	1210.484684217056	0.0	563.5954464041218	588.3903910058364	0.0	564.9181122871414	460.93359055904375	0.0	563.4874825181996	550.9114144593451	0.0	474.6551156023914	620.3492970365016	0.0	418.11410708953497	738.4678794898083	0.0	379.30222134092355	837.165663452395	0.0	655.785910515483	601.8463541991435	0.0	699.6797448842101	727.1109196716784	0.0	736.1233591388329	827.6547382244157	0.0
171	5.717592592592593	563.4815737965916	847.2236989748145	0.0	508.76600278225493	850.928582373452	0.0	512.4024134194715	1015.0993233255728	0.0	486.44432878316803	1219.6607122755534	0.0	519.0443274573496	1280.8180353303806	0.0	504.1842036012638	1272.7235230119813	0.0	480.79818041370476	1250.2584528667248	0.0	620.0896407916218	847.7439586415204	0.0	671.3223539366081	1024.6771702888213	0.0	614.846500052614	1186.8814394283506	0.0	673.426617712486	1252.8170021294768	0.0	681.4473007072615	1238.183829731943	0.0	595.3475892665854	1209.5424256859837	0.0	562.3240390472173	586.7391576317336	0.0	562.6115892583404	458.69314990686377	0.0	559.9406331548653	548.3379640735934	0.0	473.59831361258017	620.1160191613988	0.0	416.60812663261834	738.7662635517939	0.0	378.4699347687925	837.4172446989949	0.0	654.9357924424512	601.3599822549361	0.0	698.9383528711448	729.0304838791915	0.0	736.120025396418	828.8008976667368	0.0
172	5.751028806584362	564.8814732439608	847.4800355243643	0.0	509.5015704053528	852.3484443721471	0.0	512.8857896818224	1019.785863708567	0.0	486.4952557772585	1227.220298742132	0.0	525.8251776921342	1288.9213697851005	0.0	504.03792945658427	1281.586338027596	0.0	480.53750969518074	1258.2837218077486	0.0	622.1259526050533	847.9887974031662	0.0	675.0640099717399	1024.8741634555943	0.0	618.2802011819587	1189.0489904801889	0.0	676.0822275950134	1257.7365652807093	0.0	684.7226056481627	1243.0881724580788	0.0	598.5818627142875	1211.6321276851947	0.0	562.0545146503912	586.0429534403085	0.0	561.7715540467184	456.96645230943193	0.0	559.067521334492	547.2477707923782	0.0	473.4126115696808	620.040226344827	0.0	415.3013790826123	738.8411366712058	0.0	378.04332388591826	838.1014451682444	0.0	654.3617614742157	600.5560582588287	0.0	698.59630395781	730.4082667864095	0.0	736.3450710043686	829.7267801138496	0.0
173	5.784465020576132	566.9860660083972	849.0747069892465	0.0	510.92522927568655	854.705547231492	0.0	513.4049323947793	1024.414246583591	0.0	487.62112381233067	1231.6430531915373	0.0	530.0200942531043	1297.0230377260132	0.0	503.29682207968534	1290.1608644846947	0.0	480.7573305927561	1261.8734910894239	0.0	625.1137473502982	848.6704525386377	0.0	677.3306334205324	1025.63759980857	0.0	622.1463515455597	1193.5625881355618	0.0	680.9338019573721	1262.9291474122913	0.0	689.4977886557799	1247.9067521361776	0.0	602.1265900418944	1216.7498968221603	0.0	562.6440410320956	584.9850984547946	0.0	561.7134465150431	456.6171028040443	0.0	558.9579800012501	548.1530471941966	0.0	473.7316060946248	619.1303836379352	0.0	414.20447263358966	738.4111918643846	0.0	377.6737079599561	839.086871381541	0.0	653.9371520678205	599.0803141050945	0.0	698.4555620734918	729.9111823119233	0.0	736.6389253944395	829.557213296779	0.0
174	5.817901234567901	568.925363438572	850.9136409562931	0.0	512.3552098224293	856.627017020189	0.0	513.4435530953907	1026.7937480572082	0.0	489.4053887117321	1233.1471541941494	0.0	532.1055308752976	1301.4224359087475	0.0	502.2899191265084	1295.2615160545686	0.0	480.6445532315768	1262.2012595468873	0.0	627.5140189739068	849.1122163077047	0.0	678.6161879454825	1026.465840248517	0.0	626.6822143367397	1200.0916144056248	0.0	687.8933311547204	1268.9980473389824	0.0	696.6248022768418	1253.7838151433284	0.0	606.3106449867577	1224.5718634460068	0.0	563.7259130791476	584.2820396953962	0.0	562.1025883420265	457.1633392518665	0.0	558.5434560697291	550.263053139441	0.0	474.18342641423436	617.9911319214775	0.0	413.26225493705675	737.587642427305	0.0	377.67281097516553	838.8822095693156	0.0	654.230360550936	598.2176377535004	0.0	698.3164543897554	729.0419086113291	0.0	737.0566010449892	829.0726146755376	0.0
